# Blender v2.77 (sub 0) OBJ File: 'untitled.blend'
# www.blender.org
mtllib cube.mtl
o Cube_Cube.003
v -2.000000 -2.000000 2.000000
v -2.000000 2.000000 2.000000
v -2.000000 -2.000000 -2.000000
v -2.000000 2.000000 -2.000000
v 2.000000 -2.000000 2.000000
v 2.000000 2.000000 2.000000
v 2.000000 -2.000000 -2.000000
v 2.000000 2.000000 -2.000000
v -2.000000 0.000000 2.000000
v -2.000000 2.000000 0.000000
v -2.000000 0.000000 -2.000000
v -2.000000 -2.000000 0.000000
v 0.000000 2.000000 -2.000000
v 2.000000 0.000000 -2.000000
v 0.000000 -2.000000 -2.000000
v 2.000000 2.000000 0.000000
v 2.000000 0.000000 2.000000
v 2.000000 -2.000000 0.000000
v 0.000000 2.000000 2.000000
v 0.000000 -2.000000 2.000000
v 0.000000 2.000000 0.000000
v 0.000000 -2.000000 0.000000
v 0.000000 0.000000 2.000000
v 2.000000 0.000000 0.000000
v 0.000000 0.000000 -2.000000
v -2.000000 0.000000 0.000000
v -2.000000 1.000000 2.000000
v -2.000000 2.000000 -1.000000
v -2.000000 -1.000000 -2.000000
v -2.000000 -2.000000 1.000000
v 1.000000 2.000000 -2.000000
v 2.000000 -1.000000 -2.000000
v -1.000000 -2.000000 -2.000000
v 2.000000 2.000000 1.000000
v 2.000000 -1.000000 2.000000
v 2.000000 -2.000000 -1.000000
v -1.000000 2.000000 2.000000
v 1.000000 -2.000000 2.000000
v -2.000000 -1.000000 2.000000
v -2.000000 2.000000 1.000000
v -2.000000 1.000000 -2.000000
v -2.000000 -2.000000 -1.000000
v -1.000000 2.000000 -2.000000
v 2.000000 1.000000 -2.000000
v 1.000000 -2.000000 -2.000000
v 2.000000 2.000000 -1.000000
v 2.000000 1.000000 2.000000
v 2.000000 -2.000000 1.000000
v 1.000000 2.000000 2.000000
v -1.000000 -2.000000 2.000000
v -1.000000 2.000000 0.000000
v 1.000000 2.000000 0.000000
v 0.000000 2.000000 1.000000
v 0.000000 2.000000 -1.000000
v 1.000000 -2.000000 0.000000
v -1.000000 -2.000000 0.000000
v 0.000000 -2.000000 1.000000
v 0.000000 -2.000000 -1.000000
v 0.000000 -1.000000 2.000000
v 0.000000 1.000000 2.000000
v 1.000000 0.000000 2.000000
v -1.000000 0.000000 2.000000
v 2.000000 -1.000000 0.000000
v 2.000000 1.000000 0.000000
v 2.000000 0.000000 -1.000000
v 2.000000 0.000000 1.000000
v 0.000000 -1.000000 -2.000000
v 0.000000 1.000000 -2.000000
v -1.000000 0.000000 -2.000000
v 1.000000 0.000000 -2.000000
v -2.000000 -1.000000 0.000000
v -2.000000 1.000000 0.000000
v -2.000000 0.000000 1.000000
v -2.000000 0.000000 -1.000000
v -2.000000 1.000000 -1.000000
v -2.000000 1.000000 1.000000
v -2.000000 -1.000000 1.000000
v 1.000000 1.000000 -2.000000
v -1.000000 1.000000 -2.000000
v -1.000000 -1.000000 -2.000000
v 2.000000 1.000000 1.000000
v 2.000000 1.000000 -1.000000
v 2.000000 -1.000000 -1.000000
v -1.000000 1.000000 2.000000
v 1.000000 1.000000 2.000000
v 1.000000 -1.000000 2.000000
v -1.000000 -2.000000 -1.000000
v -1.000000 -2.000000 1.000000
v 1.000000 -2.000000 1.000000
v 1.000000 2.000000 -1.000000
v 1.000000 2.000000 1.000000
v -1.000000 2.000000 1.000000
v -1.000000 2.000000 -1.000000
v 1.000000 -2.000000 -1.000000
v -1.000000 -1.000000 2.000000
v 2.000000 -1.000000 1.000000
v 1.000000 -1.000000 -2.000000
v -2.000000 -1.000000 -1.000000
vt 0.9902 0.7451
vt 0.7451 0.9902
vt 0.7451 0.7451
vt 0.2549 0.9902
vt 0.0098 0.7451
vt 0.2549 0.7451
vt 0.9902 0.7451
vt 0.7451 0.9902
vt 0.7451 0.7451
vt 0.9902 0.7451
vt 0.7451 0.9902
vt 0.7451 0.7451
vt 0.0098 0.2549
vt 0.2549 0.0098
vt 0.2549 0.2549
vt 0.9902 0.7451
vt 0.7451 0.9902
vt 0.7451 0.7451
vt 0.5000 0.7451
vt 0.2549 0.9902
vt 0.2549 0.7451
vt 0.5000 0.2549
vt 0.2549 0.5000
vt 0.2549 0.2549
vt 0.9902 0.2549
vt 0.7451 0.5000
vt 0.7451 0.2549
vt 0.5000 0.2549
vt 0.7451 0.0098
vt 0.7451 0.2549
vt 0.5000 0.7451
vt 0.7451 0.5000
vt 0.7451 0.7451
vt 0.0098 0.7451
vt 0.2549 0.5000
vt 0.2549 0.7451
vt 0.5000 0.7451
vt 0.2549 0.9902
vt 0.2549 0.7451
vt 0.5000 0.2549
vt 0.2549 0.5000
vt 0.2549 0.2549
vt 0.9902 0.2549
vt 0.7451 0.5000
vt 0.7451 0.2549
vt 0.5000 0.7451
vt 0.2549 0.9902
vt 0.2549 0.7451
vt 0.5000 0.2549
vt 0.2549 0.5000
vt 0.2549 0.2549
vt 0.9902 0.2549
vt 0.7451 0.5000
vt 0.7451 0.2549
vt 0.2549 0.5000
vt 0.0098 0.2549
vt 0.2549 0.2549
vt 0.7451 0.5000
vt 0.5000 0.2549
vt 0.7451 0.2549
vt 0.7451 0.9902
vt 0.5000 0.7451
vt 0.7451 0.7451
vt 0.5000 0.7451
vt 0.2549 0.9902
vt 0.2549 0.7451
vt 0.5000 0.2549
vt 0.2549 0.5000
vt 0.2549 0.2549
vt 0.9902 0.2549
vt 0.7451 0.5000
vt 0.7451 0.2549
vt 0.5000 0.5000
vt 0.7451 0.0098
vt 0.5000 0.0098
vt 0.9902 0.0098
vt 0.0098 0.5000
vt 0.0098 0.2549
vt 0.2549 0.0098
vt 0.0098 0.0098
vt 0.0098 0.9902
vt 0.0098 0.7451
vt 0.5000 0.5000
vt 0.9902 0.7451
vt 0.9902 0.5000
vt 0.9902 0.9902
vt 0.5000 0.0098
vt 0.7451 0.0098
vt 0.9902 0.2549
vt 0.0098 0.0098
vt 0.2549 0.0098
vt 0.5000 0.5000
vt 0.7451 0.0098
vt 0.5000 0.0098
vt 0.9902 0.0098
vt 0.0098 0.5000
vt 0.0098 0.2549
vt 0.2549 0.0098
vt 0.0098 0.0098
vt 0.0098 0.9902
vt 0.0098 0.7451
vt 0.5000 0.5000
vt 0.7451 0.0098
vt 0.5000 0.0098
vt 0.9902 0.0098
vt 0.0098 0.5000
vt 0.0098 0.2549
vt 0.2549 0.0098
vt 0.0098 0.0098
vt 0.0098 0.9902
vt 0.0098 0.7451
vt 0.5000 0.5000
vt 0.2549 0.9902
vt 0.5000 0.9902
vt 0.0098 0.9902
vt 0.9902 0.5000
vt 0.9902 0.7451
vt 0.7451 0.9902
vt 0.9902 0.9902
vt 0.9902 0.0098
vt 0.9902 0.2549
vt 0.5000 0.5000
vt 0.7451 0.0098
vt 0.9902 0.0098
vt 0.0098 0.5000
vt 0.0098 0.2549
vt 0.2549 0.0098
vt 0.0098 0.9902
vt 0.0098 0.7451
vt 0.5000 0.9902
vt 0.5000 0.0098
vt 0.0098 0.5000
vt 0.5000 0.9902
vt 0.9902 0.5000
vt 0.5000 0.9902
vt 0.9902 0.5000
vt 0.5000 0.9902
vt 0.9902 0.5000
vt 0.9902 0.9902
vt 0.9902 0.9902
vt 0.0098 0.0098
vt 0.9902 0.9902
vn -1.0000 0.0000 0.0000
vn 0.0000 0.0000 -1.0000
vn 1.0000 0.0000 0.0000
vn 0.0000 0.0000 1.0000
vn 0.0000 -1.0000 0.0000
vn 0.0000 1.0000 0.0000
usemtl cube_material
s off
f 29/1/1 42/2/1 98/3/1
f 32/4/2 45/5/2 97/6/2
f 35/7/3 48/8/3 96/9/3
f 39/10/4 50/11/4 95/12/4
f 45/13/5 36/14/5 94/15/5
f 43/16/6 28/17/6 93/18/6
f 51/19/6 40/20/6 92/21/6
f 52/22/6 53/23/6 91/24/6
f 31/25/6 54/26/6 90/27/6
f 55/28/5 48/29/5 89/30/5
f 56/31/5 57/32/5 88/33/5
f 33/34/5 58/35/5 87/36/5
f 59/37/4 38/38/4 86/39/4
f 60/40/4 61/41/4 85/42/4
f 27/43/4 62/44/4 84/45/4
f 63/46/3 36/47/3 83/48/3
f 64/49/3 65/50/3 82/51/3
f 47/52/3 66/53/3 81/54/3
f 67/55/2 33/56/2 80/57/2
f 68/58/2 69/59/2 79/60/2
f 44/61/2 70/62/2 78/63/2
f 71/64/1 30/65/1 77/66/1
f 72/67/1 73/68/1 76/69/1
f 41/70/1 74/71/1 75/72/1
f 75/72/1 26/73/1 72/67/1
f 28/74/1 72/67/1 10/75/1
f 4/76/1 75/72/1 28/74/1
f 76/69/1 9/77/1 27/78/1
f 40/79/1 27/78/1 2/80/1
f 10/75/1 76/69/1 40/79/1
f 77/66/1 1/81/1 39/82/1
f 73/68/1 39/82/1 9/77/1
f 26/73/1 77/66/1 73/68/1
f 78/63/2 25/83/2 68/58/2
f 31/84/2 68/58/2 13/85/2
f 8/86/2 78/63/2 31/84/2
f 79/60/2 11/87/2 41/88/2
f 43/89/2 41/88/2 4/76/2
f 13/85/2 79/60/2 43/89/2
f 80/57/2 3/90/2 29/91/2
f 69/59/2 29/91/2 11/87/2
f 25/83/2 80/57/2 69/59/2
f 81/54/3 24/92/3 64/49/3
f 34/93/3 64/49/3 16/94/3
f 6/95/3 81/54/3 34/93/3
f 82/51/3 14/96/3 44/97/3
f 46/98/3 44/97/3 8/99/3
f 16/94/3 82/51/3 46/98/3
f 83/48/3 7/100/3 32/101/3
f 65/50/3 32/101/3 14/96/3
f 24/92/3 83/48/3 65/50/3
f 84/45/4 23/102/4 60/40/4
f 37/103/4 60/40/4 19/104/4
f 2/105/4 84/45/4 37/103/4
f 85/42/4 17/106/4 47/107/4
f 49/108/4 47/107/4 6/109/4
f 19/104/4 85/42/4 49/108/4
f 86/39/4 5/110/4 35/111/4
f 61/41/4 35/111/4 17/106/4
f 23/102/4 86/39/4 61/41/4
f 87/36/5 22/112/5 56/31/5
f 42/113/5 56/31/5 12/114/5
f 3/115/5 87/36/5 42/113/5
f 88/33/5 20/116/5 50/117/5
f 30/118/5 50/117/5 1/119/5
f 12/114/5 88/33/5 30/118/5
f 89/30/5 5/120/5 38/121/5
f 57/32/5 38/121/5 20/116/5
f 22/112/5 89/30/5 57/32/5
f 90/27/6 21/122/6 52/22/6
f 46/123/6 52/22/6 16/94/6
f 8/124/6 90/27/6 46/123/6
f 91/24/6 19/125/6 49/126/6
f 34/127/6 49/126/6 6/109/6
f 16/94/6 91/24/6 34/127/6
f 92/21/6 2/128/6 37/129/6
f 53/23/6 37/129/6 19/125/6
f 21/122/6 92/21/6 53/23/6
f 93/18/6 10/130/6 51/19/6
f 54/26/6 51/19/6 21/122/6
f 13/85/6 93/18/6 54/26/6
f 94/15/5 18/131/5 55/28/5
f 58/35/5 55/28/5 22/112/5
f 15/132/5 94/15/5 58/35/5
f 95/12/4 20/133/4 59/37/4
f 62/44/4 59/37/4 23/102/4
f 9/134/4 95/12/4 62/44/4
f 96/9/3 18/135/3 63/46/3
f 66/53/3 63/46/3 24/92/3
f 17/136/3 96/9/3 66/53/3
f 97/6/2 15/132/2 67/55/2
f 70/62/2 67/55/2 25/83/2
f 14/137/2 97/6/2 70/62/2
f 98/3/1 12/114/1 71/64/1
f 74/71/1 71/64/1 26/73/1
f 11/138/1 98/3/1 74/71/1
f 29/1/1 3/139/1 42/2/1
f 32/4/2 7/100/2 45/5/2
f 35/7/3 5/140/3 48/8/3
f 39/10/4 1/119/4 50/11/4
f 45/13/5 7/141/5 36/14/5
f 43/16/6 4/142/6 28/17/6
f 51/19/6 10/130/6 40/20/6
f 52/22/6 21/122/6 53/23/6
f 31/25/6 13/85/6 54/26/6
f 55/28/5 18/131/5 48/29/5
f 56/31/5 22/112/5 57/32/5
f 33/34/5 15/132/5 58/35/5
f 59/37/4 20/133/4 38/38/4
f 60/40/4 23/102/4 61/41/4
f 27/43/4 9/134/4 62/44/4
f 63/46/3 18/135/3 36/47/3
f 64/49/3 24/92/3 65/50/3
f 47/52/3 17/136/3 66/53/3
f 67/55/2 15/132/2 33/56/2
f 68/58/2 25/83/2 69/59/2
f 44/61/2 14/137/2 70/62/2
f 71/64/1 12/114/1 30/65/1
f 72/67/1 26/73/1 73/68/1
f 41/70/1 11/138/1 74/71/1
f 75/72/1 74/71/1 26/73/1
f 28/74/1 75/72/1 72/67/1
f 4/76/1 41/70/1 75/72/1
f 76/69/1 73/68/1 9/77/1
f 40/79/1 76/69/1 27/78/1
f 10/75/1 72/67/1 76/69/1
f 77/66/1 30/65/1 1/81/1
f 73/68/1 77/66/1 39/82/1
f 26/73/1 71/64/1 77/66/1
f 78/63/2 70/62/2 25/83/2
f 31/84/2 78/63/2 68/58/2
f 8/86/2 44/61/2 78/63/2
f 79/60/2 69/59/2 11/87/2
f 43/89/2 79/60/2 41/88/2
f 13/85/2 68/58/2 79/60/2
f 80/57/2 33/56/2 3/90/2
f 69/59/2 80/57/2 29/91/2
f 25/83/2 67/55/2 80/57/2
f 81/54/3 66/53/3 24/92/3
f 34/93/3 81/54/3 64/49/3
f 6/95/3 47/52/3 81/54/3
f 82/51/3 65/50/3 14/96/3
f 46/98/3 82/51/3 44/97/3
f 16/94/3 64/49/3 82/51/3
f 83/48/3 36/47/3 7/100/3
f 65/50/3 83/48/3 32/101/3
f 24/92/3 63/46/3 83/48/3
f 84/45/4 62/44/4 23/102/4
f 37/103/4 84/45/4 60/40/4
f 2/105/4 27/43/4 84/45/4
f 85/42/4 61/41/4 17/106/4
f 49/108/4 85/42/4 47/107/4
f 19/104/4 60/40/4 85/42/4
f 86/39/4 38/38/4 5/110/4
f 61/41/4 86/39/4 35/111/4
f 23/102/4 59/37/4 86/39/4
f 87/36/5 58/35/5 22/112/5
f 42/113/5 87/36/5 56/31/5
f 3/115/5 33/34/5 87/36/5
f 88/33/5 57/32/5 20/116/5
f 30/118/5 88/33/5 50/117/5
f 12/114/5 56/31/5 88/33/5
f 89/30/5 48/29/5 5/120/5
f 57/32/5 89/30/5 38/121/5
f 22/112/5 55/28/5 89/30/5
f 90/27/6 54/26/6 21/122/6
f 46/123/6 90/27/6 52/22/6
f 8/124/6 31/25/6 90/27/6
f 91/24/6 53/23/6 19/125/6
f 34/127/6 91/24/6 49/126/6
f 16/94/6 52/22/6 91/24/6
f 92/21/6 40/20/6 2/128/6
f 53/23/6 92/21/6 37/129/6
f 21/122/6 51/19/6 92/21/6
f 93/18/6 28/17/6 10/130/6
f 54/26/6 93/18/6 51/19/6
f 13/85/6 43/16/6 93/18/6
f 94/15/5 36/14/5 18/131/5
f 58/35/5 94/15/5 55/28/5
f 15/132/5 45/13/5 94/15/5
f 95/12/4 50/11/4 20/133/4
f 62/44/4 95/12/4 59/37/4
f 9/134/4 39/10/4 95/12/4
f 96/9/3 48/8/3 18/135/3
f 66/53/3 96/9/3 63/46/3
f 17/136/3 35/7/3 96/9/3
f 97/6/2 45/5/2 15/132/2
f 70/62/2 97/6/2 67/55/2
f 14/137/2 32/4/2 97/6/2
f 98/3/1 42/2/1 12/114/1
f 74/71/1 98/3/1 71/64/1
f 11/138/1 29/1/1 98/3/1
