# Blender v2.77 (sub 0) OBJ File: 'untitled.blend'
# www.blender.org
mtllib cube_simple.mtl
o Cube_Cube.003
v -2.000000 -2.000000 2.000000
v -2.000000 2.000000 2.000000
v -2.000000 -2.000000 -2.000000
v -2.000000 2.000000 -2.000000
v 2.000000 -2.000000 2.000000
v 2.000000 2.000000 2.000000
v 2.000000 -2.000000 -2.000000
v 2.000000 2.000000 -2.000000
vt 0.0098 0.0098
vt 0.9902 0.0098
vt 0.9902 0.9902
vt 0.0098 0.9902
vt 0.9902 0.9902
vt 0.0098 0.9902
vt 0.0098 0.0098
vt 0.0098 0.0098
vt 0.9902 0.0098
vt 0.9902 0.9902
vt 0.0098 0.0098
vt 0.9902 0.0098
vt 0.9902 0.9902
vt 0.0098 0.9902
vt 0.0098 0.9902
vt 0.0098 0.0098
vt 0.9902 0.0098
vt 0.9902 0.0098
vt 0.9902 0.9902
vt 0.0098 0.9902
vn -1.0000 0.0000 0.0000
vn 0.0000 0.0000 -1.0000
vn 1.0000 0.0000 0.0000
vn 0.0000 0.0000 1.0000
vn 0.0000 -1.0000 0.0000
vn 0.0000 1.0000 0.0000
usemtl cube_material
s off
f 2/1/1 4/2/1 3/3/1 1/4/1
f 4/2/2 8/5/2 7/6/2 3/7/2
f 8/8/3 6/9/3 5/10/3 7/6/3
f 6/11/4 2/12/4 1/13/4 5/14/4
f 1/13/5 3/15/5 7/16/5 5/17/5
f 6/11/6 8/18/6 4/19/6 2/20/6
